G04 #@! TF.FileFunction,Legend,Top*
%FSLAX46Y46*%
G04 Gerber Fmt 4.6, Leading zero omitted, Abs format (unit mm)*
G04 Created by KiCad (PCBNEW 4.0.7) date Thursday, February 01, 2018 'PMt' 05:23:04 PM*
%MOMM*%
%LPD*%
G01*
G04 APERTURE LIST*
%ADD10C,0.100000*%
%ADD11C,0.127000*%
%ADD12C,0.120000*%
%ADD13C,0.500000*%
%ADD14C,0.150000*%
%ADD15C,0.050000*%
G04 APERTURE END LIST*
D10*
D11*
X134436000Y-93022000D02*
X131236000Y-93022000D01*
X131236000Y-93022000D02*
X131236000Y-95522000D01*
X131236000Y-95522000D02*
X134436000Y-95522000D01*
X134436000Y-95522000D02*
X134436000Y-93022000D01*
D12*
X132115000Y-99704000D02*
X133315000Y-99704000D01*
X133315000Y-101464000D02*
X132115000Y-101464000D01*
X134442000Y-104305000D02*
X134442000Y-102705000D01*
X134442000Y-102705000D02*
X131842000Y-102705000D01*
X134442000Y-104305000D02*
X131842000Y-104305000D01*
X132115000Y-108975000D02*
X133315000Y-108975000D01*
X133315000Y-110735000D02*
X132115000Y-110735000D01*
X131436000Y-113512000D02*
X131436000Y-114712000D01*
X129676000Y-114712000D02*
X129676000Y-113512000D01*
D13*
X107852981Y-91821000D02*
G75*
G03X107852981Y-91821000I-283981J0D01*
G01*
D14*
X126475000Y-91675000D02*
X108475000Y-91675000D01*
X108475000Y-85675000D02*
X108475000Y-111175000D01*
X126475000Y-85675000D02*
X126475000Y-111175000D01*
X126475000Y-111175000D02*
X108475000Y-111175000D01*
X126475000Y-85675000D02*
X108475000Y-85675000D01*
D12*
X104385000Y-103413000D02*
X104385000Y-104613000D01*
X102625000Y-104613000D02*
X102625000Y-103413000D01*
X102655000Y-108466000D02*
X102655000Y-109466000D01*
X104355000Y-109466000D02*
X104355000Y-108466000D01*
X108077000Y-117662000D02*
X125917000Y-117662000D01*
X125917000Y-117662000D02*
X125917000Y-115002000D01*
X125917000Y-115002000D02*
X108077000Y-115002000D01*
X108077000Y-115002000D02*
X108077000Y-117662000D01*
X106807000Y-117662000D02*
X105477000Y-117662000D01*
X105477000Y-117662000D02*
X105477000Y-116332000D01*
X102655000Y-93988000D02*
X102655000Y-94988000D01*
X104355000Y-94988000D02*
X104355000Y-93988000D01*
X102655000Y-99068000D02*
X102655000Y-100068000D01*
X104355000Y-100068000D02*
X104355000Y-99068000D01*
X132115000Y-105800000D02*
X133315000Y-105800000D01*
X133315000Y-107560000D02*
X132115000Y-107560000D01*
X132115000Y-96656000D02*
X133315000Y-96656000D01*
X133315000Y-98416000D02*
X132115000Y-98416000D01*
D15*
X134718209Y-94713886D02*
X135357690Y-94713886D01*
X135432923Y-94676270D01*
X135470540Y-94638653D01*
X135508156Y-94563420D01*
X135508156Y-94412954D01*
X135470540Y-94337721D01*
X135432923Y-94300105D01*
X135357690Y-94262488D01*
X134718209Y-94262488D01*
X134793443Y-93923939D02*
X134755826Y-93886322D01*
X134718209Y-93811089D01*
X134718209Y-93623007D01*
X134755826Y-93547774D01*
X134793443Y-93510157D01*
X134868676Y-93472541D01*
X134943909Y-93472541D01*
X135056758Y-93510157D01*
X135508156Y-93961555D01*
X135508156Y-93472541D01*
X130364412Y-96423243D02*
X130402024Y-96310408D01*
X130439635Y-96272796D01*
X130514859Y-96235185D01*
X130627694Y-96235185D01*
X130702917Y-96272796D01*
X130740529Y-96310408D01*
X130778140Y-96385631D01*
X130778140Y-96686525D01*
X129988295Y-96686525D01*
X129988295Y-96423243D01*
X130025907Y-96348020D01*
X130063519Y-96310408D01*
X130138742Y-96272796D01*
X130213965Y-96272796D01*
X130289189Y-96310408D01*
X130326800Y-96348020D01*
X130364412Y-96423243D01*
X130364412Y-96686525D01*
X130778140Y-95896680D02*
X129988295Y-95896680D01*
X130552470Y-95633398D01*
X129988295Y-95370116D01*
X130778140Y-95370116D01*
X130364412Y-94994000D02*
X130364412Y-94730718D01*
X130778140Y-94617883D02*
X130778140Y-94994000D01*
X129988295Y-94994000D01*
X129988295Y-94617883D01*
X129988295Y-93940873D02*
X129988295Y-94091319D01*
X130025907Y-94166543D01*
X130063519Y-94204154D01*
X130176354Y-94279378D01*
X130326800Y-94316989D01*
X130627694Y-94316989D01*
X130702917Y-94279378D01*
X130740529Y-94241766D01*
X130778140Y-94166543D01*
X130778140Y-94016096D01*
X130740529Y-93940873D01*
X130702917Y-93903261D01*
X130627694Y-93865649D01*
X130439635Y-93865649D01*
X130364412Y-93903261D01*
X130326800Y-93940873D01*
X130289189Y-94016096D01*
X130289189Y-94166543D01*
X130326800Y-94241766D01*
X130364412Y-94279378D01*
X130439635Y-94316989D01*
X130326800Y-93414310D02*
X130289189Y-93489533D01*
X130251577Y-93527145D01*
X130176354Y-93564756D01*
X130138742Y-93564756D01*
X130063519Y-93527145D01*
X130025907Y-93489533D01*
X129988295Y-93414310D01*
X129988295Y-93263863D01*
X130025907Y-93188640D01*
X130063519Y-93151028D01*
X130138742Y-93113416D01*
X130176354Y-93113416D01*
X130251577Y-93151028D01*
X130289189Y-93188640D01*
X130326800Y-93263863D01*
X130326800Y-93414310D01*
X130364412Y-93489533D01*
X130402024Y-93527145D01*
X130477247Y-93564756D01*
X130627694Y-93564756D01*
X130702917Y-93527145D01*
X130740529Y-93489533D01*
X130778140Y-93414310D01*
X130778140Y-93263863D01*
X130740529Y-93188640D01*
X130702917Y-93151028D01*
X130627694Y-93113416D01*
X130477247Y-93113416D01*
X130402024Y-93151028D01*
X130364412Y-93188640D01*
X130326800Y-93263863D01*
X129988295Y-92624465D02*
X129988295Y-92549242D01*
X130025907Y-92474018D01*
X130063519Y-92436407D01*
X130138742Y-92398795D01*
X130289189Y-92361183D01*
X130477247Y-92361183D01*
X130627694Y-92398795D01*
X130702917Y-92436407D01*
X130740529Y-92474018D01*
X130778140Y-92549242D01*
X130778140Y-92624465D01*
X130740529Y-92699688D01*
X130702917Y-92737300D01*
X130627694Y-92774912D01*
X130477247Y-92812523D01*
X130289189Y-92812523D01*
X130138742Y-92774912D01*
X130063519Y-92737300D01*
X130025907Y-92699688D01*
X129988295Y-92624465D01*
D14*
X135580381Y-100750666D02*
X135104190Y-101084000D01*
X135580381Y-101322095D02*
X134580381Y-101322095D01*
X134580381Y-100941142D01*
X134628000Y-100845904D01*
X134675619Y-100798285D01*
X134770857Y-100750666D01*
X134913714Y-100750666D01*
X135008952Y-100798285D01*
X135056571Y-100845904D01*
X135104190Y-100941142D01*
X135104190Y-101322095D01*
X134913714Y-99893523D02*
X135580381Y-99893523D01*
X134532762Y-100131619D02*
X135247048Y-100369714D01*
X135247048Y-99750666D01*
X132137905Y-105735381D02*
X132137905Y-104735381D01*
X132376000Y-104735381D01*
X132518858Y-104783000D01*
X132614096Y-104878238D01*
X132661715Y-104973476D01*
X132709334Y-105163952D01*
X132709334Y-105306810D01*
X132661715Y-105497286D01*
X132614096Y-105592524D01*
X132518858Y-105687762D01*
X132376000Y-105735381D01*
X132137905Y-105735381D01*
X133661715Y-105735381D02*
X133090286Y-105735381D01*
X133376000Y-105735381D02*
X133376000Y-104735381D01*
X133280762Y-104878238D01*
X133185524Y-104973476D01*
X133090286Y-105021095D01*
X130815381Y-110021666D02*
X130339190Y-110355000D01*
X130815381Y-110593095D02*
X129815381Y-110593095D01*
X129815381Y-110212142D01*
X129863000Y-110116904D01*
X129910619Y-110069285D01*
X130005857Y-110021666D01*
X130148714Y-110021666D01*
X130243952Y-110069285D01*
X130291571Y-110116904D01*
X130339190Y-110212142D01*
X130339190Y-110593095D01*
X129815381Y-109688333D02*
X129815381Y-109069285D01*
X130196333Y-109402619D01*
X130196333Y-109259761D01*
X130243952Y-109164523D01*
X130291571Y-109116904D01*
X130386810Y-109069285D01*
X130624905Y-109069285D01*
X130720143Y-109116904D01*
X130767762Y-109164523D01*
X130815381Y-109259761D01*
X130815381Y-109545476D01*
X130767762Y-109640714D01*
X130720143Y-109688333D01*
X129103381Y-114466666D02*
X128627190Y-114800000D01*
X129103381Y-115038095D02*
X128103381Y-115038095D01*
X128103381Y-114657142D01*
X128151000Y-114561904D01*
X128198619Y-114514285D01*
X128293857Y-114466666D01*
X128436714Y-114466666D01*
X128531952Y-114514285D01*
X128579571Y-114561904D01*
X128627190Y-114657142D01*
X128627190Y-115038095D01*
X128198619Y-114085714D02*
X128151000Y-114038095D01*
X128103381Y-113942857D01*
X128103381Y-113704761D01*
X128151000Y-113609523D01*
X128198619Y-113561904D01*
X128293857Y-113514285D01*
X128389095Y-113514285D01*
X128531952Y-113561904D01*
X129103381Y-114133333D01*
X129103381Y-113514285D01*
X128270095Y-88860381D02*
X128270095Y-89669905D01*
X128317714Y-89765143D01*
X128365333Y-89812762D01*
X128460571Y-89860381D01*
X128651048Y-89860381D01*
X128746286Y-89812762D01*
X128793905Y-89765143D01*
X128841524Y-89669905D01*
X128841524Y-88860381D01*
X129841524Y-89860381D02*
X129270095Y-89860381D01*
X129555809Y-89860381D02*
X129555809Y-88860381D01*
X129460571Y-89003238D01*
X129365333Y-89098476D01*
X129270095Y-89146095D01*
X124261571Y-105885430D02*
X124261571Y-105552096D01*
X124785381Y-105409239D02*
X124785381Y-105885430D01*
X123785381Y-105885430D01*
X123785381Y-105409239D01*
X124737762Y-105028287D02*
X124785381Y-104933049D01*
X124785381Y-104742573D01*
X124737762Y-104647334D01*
X124642524Y-104599715D01*
X124594905Y-104599715D01*
X124499667Y-104647334D01*
X124452048Y-104742573D01*
X124452048Y-104885430D01*
X124404429Y-104980668D01*
X124309190Y-105028287D01*
X124261571Y-105028287D01*
X124166333Y-104980668D01*
X124118714Y-104885430D01*
X124118714Y-104742573D01*
X124166333Y-104647334D01*
X124118714Y-104171144D02*
X125118714Y-104171144D01*
X124166333Y-104171144D02*
X124118714Y-104075906D01*
X124118714Y-103885429D01*
X124166333Y-103790191D01*
X124213952Y-103742572D01*
X124309190Y-103694953D01*
X124594905Y-103694953D01*
X124690143Y-103742572D01*
X124737762Y-103790191D01*
X124785381Y-103885429D01*
X124785381Y-104075906D01*
X124737762Y-104171144D01*
X124785381Y-103266382D02*
X124118714Y-103266382D01*
X124309190Y-103266382D02*
X124213952Y-103218763D01*
X124166333Y-103171144D01*
X124118714Y-103075906D01*
X124118714Y-102980667D01*
X124737762Y-102266381D02*
X124785381Y-102361619D01*
X124785381Y-102552096D01*
X124737762Y-102647334D01*
X124642524Y-102694953D01*
X124261571Y-102694953D01*
X124166333Y-102647334D01*
X124118714Y-102552096D01*
X124118714Y-102361619D01*
X124166333Y-102266381D01*
X124261571Y-102218762D01*
X124356810Y-102218762D01*
X124452048Y-102694953D01*
X124737762Y-101837810D02*
X124785381Y-101742572D01*
X124785381Y-101552096D01*
X124737762Y-101456857D01*
X124642524Y-101409238D01*
X124594905Y-101409238D01*
X124499667Y-101456857D01*
X124452048Y-101552096D01*
X124452048Y-101694953D01*
X124404429Y-101790191D01*
X124309190Y-101837810D01*
X124261571Y-101837810D01*
X124166333Y-101790191D01*
X124118714Y-101694953D01*
X124118714Y-101552096D01*
X124166333Y-101456857D01*
X124737762Y-101028286D02*
X124785381Y-100933048D01*
X124785381Y-100742572D01*
X124737762Y-100647333D01*
X124642524Y-100599714D01*
X124594905Y-100599714D01*
X124499667Y-100647333D01*
X124452048Y-100742572D01*
X124452048Y-100885429D01*
X124404429Y-100980667D01*
X124309190Y-101028286D01*
X124261571Y-101028286D01*
X124166333Y-100980667D01*
X124118714Y-100885429D01*
X124118714Y-100742572D01*
X124166333Y-100647333D01*
X124785381Y-100171143D02*
X124118714Y-100171143D01*
X123785381Y-100171143D02*
X123833000Y-100218762D01*
X123880619Y-100171143D01*
X123833000Y-100123524D01*
X123785381Y-100171143D01*
X123880619Y-100171143D01*
X124118714Y-99837810D02*
X124118714Y-99456858D01*
X124785381Y-99694953D02*
X123928238Y-99694953D01*
X123833000Y-99647334D01*
X123785381Y-99552096D01*
X123785381Y-99456858D01*
X124737762Y-98409238D02*
X124785381Y-98266381D01*
X124785381Y-98028285D01*
X124737762Y-97933047D01*
X124690143Y-97885428D01*
X124594905Y-97837809D01*
X124499667Y-97837809D01*
X124404429Y-97885428D01*
X124356810Y-97933047D01*
X124309190Y-98028285D01*
X124261571Y-98218762D01*
X124213952Y-98314000D01*
X124166333Y-98361619D01*
X124071095Y-98409238D01*
X123975857Y-98409238D01*
X123880619Y-98361619D01*
X123833000Y-98314000D01*
X123785381Y-98218762D01*
X123785381Y-97980666D01*
X123833000Y-97837809D01*
X124118714Y-97504476D02*
X124785381Y-97266381D01*
X124118714Y-97028285D02*
X124785381Y-97266381D01*
X125023476Y-97361619D01*
X125071095Y-97409238D01*
X125118714Y-97504476D01*
X124737762Y-96694952D02*
X124785381Y-96599714D01*
X124785381Y-96409238D01*
X124737762Y-96313999D01*
X124642524Y-96266380D01*
X124594905Y-96266380D01*
X124499667Y-96313999D01*
X124452048Y-96409238D01*
X124452048Y-96552095D01*
X124404429Y-96647333D01*
X124309190Y-96694952D01*
X124261571Y-96694952D01*
X124166333Y-96647333D01*
X124118714Y-96552095D01*
X124118714Y-96409238D01*
X124166333Y-96313999D01*
X124118714Y-95980666D02*
X124118714Y-95599714D01*
X123785381Y-95837809D02*
X124642524Y-95837809D01*
X124737762Y-95790190D01*
X124785381Y-95694952D01*
X124785381Y-95599714D01*
X124737762Y-94885427D02*
X124785381Y-94980665D01*
X124785381Y-95171142D01*
X124737762Y-95266380D01*
X124642524Y-95313999D01*
X124261571Y-95313999D01*
X124166333Y-95266380D01*
X124118714Y-95171142D01*
X124118714Y-94980665D01*
X124166333Y-94885427D01*
X124261571Y-94837808D01*
X124356810Y-94837808D01*
X124452048Y-95313999D01*
X124785381Y-94409237D02*
X124118714Y-94409237D01*
X124213952Y-94409237D02*
X124166333Y-94361618D01*
X124118714Y-94266380D01*
X124118714Y-94123522D01*
X124166333Y-94028284D01*
X124261571Y-93980665D01*
X124785381Y-93980665D01*
X124261571Y-93980665D02*
X124166333Y-93933046D01*
X124118714Y-93837808D01*
X124118714Y-93694951D01*
X124166333Y-93599713D01*
X124261571Y-93552094D01*
X124785381Y-93552094D01*
X124737762Y-93123523D02*
X124785381Y-93028285D01*
X124785381Y-92837809D01*
X124737762Y-92742570D01*
X124642524Y-92694951D01*
X124594905Y-92694951D01*
X124499667Y-92742570D01*
X124452048Y-92837809D01*
X124452048Y-92980666D01*
X124404429Y-93075904D01*
X124309190Y-93123523D01*
X124261571Y-93123523D01*
X124166333Y-93075904D01*
X124118714Y-92980666D01*
X124118714Y-92837809D01*
X124166333Y-92742570D01*
X122610571Y-103623381D02*
X122610571Y-103290047D01*
X123134381Y-103147190D02*
X123134381Y-103623381D01*
X122134381Y-103623381D01*
X122134381Y-103147190D01*
X123086762Y-102766238D02*
X123134381Y-102623381D01*
X123134381Y-102385285D01*
X123086762Y-102290047D01*
X123039143Y-102242428D01*
X122943905Y-102194809D01*
X122848667Y-102194809D01*
X122753429Y-102242428D01*
X122705810Y-102290047D01*
X122658190Y-102385285D01*
X122610571Y-102575762D01*
X122562952Y-102671000D01*
X122515333Y-102718619D01*
X122420095Y-102766238D01*
X122324857Y-102766238D01*
X122229619Y-102718619D01*
X122182000Y-102671000D01*
X122134381Y-102575762D01*
X122134381Y-102337666D01*
X122182000Y-102194809D01*
X123134381Y-101766238D02*
X122134381Y-101766238D01*
X122134381Y-101385285D01*
X122182000Y-101290047D01*
X122229619Y-101242428D01*
X122324857Y-101194809D01*
X122467714Y-101194809D01*
X122562952Y-101242428D01*
X122610571Y-101290047D01*
X122658190Y-101385285D01*
X122658190Y-101766238D01*
X122134381Y-100861476D02*
X122134381Y-100242428D01*
X122515333Y-100575762D01*
X122515333Y-100432904D01*
X122562952Y-100337666D01*
X122610571Y-100290047D01*
X122705810Y-100242428D01*
X122943905Y-100242428D01*
X123039143Y-100290047D01*
X123086762Y-100337666D01*
X123134381Y-100432904D01*
X123134381Y-100718619D01*
X123086762Y-100813857D01*
X123039143Y-100861476D01*
X122229619Y-99861476D02*
X122182000Y-99813857D01*
X122134381Y-99718619D01*
X122134381Y-99480523D01*
X122182000Y-99385285D01*
X122229619Y-99337666D01*
X122324857Y-99290047D01*
X122420095Y-99290047D01*
X122562952Y-99337666D01*
X123134381Y-99909095D01*
X123134381Y-99290047D01*
X122753429Y-98861476D02*
X122753429Y-98099571D01*
X122134381Y-97718619D02*
X123134381Y-97480524D01*
X122420095Y-97290047D01*
X123134381Y-97099571D01*
X122134381Y-96861476D01*
X123134381Y-95909095D02*
X122658190Y-96242429D01*
X123134381Y-96480524D02*
X122134381Y-96480524D01*
X122134381Y-96099571D01*
X122182000Y-96004333D01*
X122229619Y-95956714D01*
X122324857Y-95909095D01*
X122467714Y-95909095D01*
X122562952Y-95956714D01*
X122610571Y-96004333D01*
X122658190Y-96099571D01*
X122658190Y-96480524D01*
X122134381Y-95290048D02*
X122134381Y-95099571D01*
X122182000Y-95004333D01*
X122277238Y-94909095D01*
X122467714Y-94861476D01*
X122801048Y-94861476D01*
X122991524Y-94909095D01*
X123086762Y-95004333D01*
X123134381Y-95099571D01*
X123134381Y-95290048D01*
X123086762Y-95385286D01*
X122991524Y-95480524D01*
X122801048Y-95528143D01*
X122467714Y-95528143D01*
X122277238Y-95480524D01*
X122182000Y-95385286D01*
X122134381Y-95290048D01*
X122134381Y-94242429D02*
X122134381Y-94051952D01*
X122182000Y-93956714D01*
X122277238Y-93861476D01*
X122467714Y-93813857D01*
X122801048Y-93813857D01*
X122991524Y-93861476D01*
X123086762Y-93956714D01*
X123134381Y-94051952D01*
X123134381Y-94242429D01*
X123086762Y-94337667D01*
X122991524Y-94432905D01*
X122801048Y-94480524D01*
X122467714Y-94480524D01*
X122277238Y-94432905D01*
X122182000Y-94337667D01*
X122134381Y-94242429D01*
X123134381Y-93385286D02*
X122134381Y-93385286D01*
X122848667Y-93051952D01*
X122134381Y-92718619D01*
X123134381Y-92718619D01*
X103338334Y-107005381D02*
X103005000Y-106529190D01*
X102766905Y-107005381D02*
X102766905Y-106005381D01*
X103147858Y-106005381D01*
X103243096Y-106053000D01*
X103290715Y-106100619D01*
X103338334Y-106195857D01*
X103338334Y-106338714D01*
X103290715Y-106433952D01*
X103243096Y-106481571D01*
X103147858Y-106529190D01*
X102766905Y-106529190D01*
X104290715Y-107005381D02*
X103719286Y-107005381D01*
X104005000Y-107005381D02*
X104005000Y-106005381D01*
X103909762Y-106148238D01*
X103814524Y-106243476D01*
X103719286Y-106291095D01*
X103338334Y-106386143D02*
X103290715Y-106433762D01*
X103147858Y-106481381D01*
X103052620Y-106481381D01*
X102909762Y-106433762D01*
X102814524Y-106338524D01*
X102766905Y-106243286D01*
X102719286Y-106052810D01*
X102719286Y-105909952D01*
X102766905Y-105719476D01*
X102814524Y-105624238D01*
X102909762Y-105529000D01*
X103052620Y-105481381D01*
X103147858Y-105481381D01*
X103290715Y-105529000D01*
X103338334Y-105576619D01*
X103719286Y-105576619D02*
X103766905Y-105529000D01*
X103862143Y-105481381D01*
X104100239Y-105481381D01*
X104195477Y-105529000D01*
X104243096Y-105576619D01*
X104290715Y-105671857D01*
X104290715Y-105767095D01*
X104243096Y-105909952D01*
X103671667Y-106481381D01*
X104290715Y-106481381D01*
X103719381Y-116665333D02*
X104433667Y-116665333D01*
X104576524Y-116712953D01*
X104671762Y-116808191D01*
X104719381Y-116951048D01*
X104719381Y-117046286D01*
X104719381Y-115665333D02*
X104719381Y-116236762D01*
X104719381Y-115951048D02*
X103719381Y-115951048D01*
X103862238Y-116046286D01*
X103957476Y-116141524D01*
X104005095Y-116236762D01*
X103338334Y-92416143D02*
X103290715Y-92463762D01*
X103147858Y-92511381D01*
X103052620Y-92511381D01*
X102909762Y-92463762D01*
X102814524Y-92368524D01*
X102766905Y-92273286D01*
X102719286Y-92082810D01*
X102719286Y-91939952D01*
X102766905Y-91749476D01*
X102814524Y-91654238D01*
X102909762Y-91559000D01*
X103052620Y-91511381D01*
X103147858Y-91511381D01*
X103290715Y-91559000D01*
X103338334Y-91606619D01*
X104290715Y-92511381D02*
X103719286Y-92511381D01*
X104005000Y-92511381D02*
X104005000Y-91511381D01*
X103909762Y-91654238D01*
X103814524Y-91749476D01*
X103719286Y-91797095D01*
X103338334Y-97496143D02*
X103290715Y-97543762D01*
X103147858Y-97591381D01*
X103052620Y-97591381D01*
X102909762Y-97543762D01*
X102814524Y-97448524D01*
X102766905Y-97353286D01*
X102719286Y-97162810D01*
X102719286Y-97019952D01*
X102766905Y-96829476D01*
X102814524Y-96734238D01*
X102909762Y-96639000D01*
X103052620Y-96591381D01*
X103147858Y-96591381D01*
X103290715Y-96639000D01*
X103338334Y-96686619D01*
X103671667Y-96591381D02*
X104290715Y-96591381D01*
X103957381Y-96972333D01*
X104100239Y-96972333D01*
X104195477Y-97019952D01*
X104243096Y-97067571D01*
X104290715Y-97162810D01*
X104290715Y-97400905D01*
X104243096Y-97496143D01*
X104195477Y-97543762D01*
X104100239Y-97591381D01*
X103814524Y-97591381D01*
X103719286Y-97543762D01*
X103671667Y-97496143D01*
X132548334Y-108782381D02*
X132215000Y-108306190D01*
X131976905Y-108782381D02*
X131976905Y-107782381D01*
X132357858Y-107782381D01*
X132453096Y-107830000D01*
X132500715Y-107877619D01*
X132548334Y-107972857D01*
X132548334Y-108115714D01*
X132500715Y-108210952D01*
X132453096Y-108258571D01*
X132357858Y-108306190D01*
X131976905Y-108306190D01*
X133453096Y-107782381D02*
X132976905Y-107782381D01*
X132929286Y-108258571D01*
X132976905Y-108210952D01*
X133072143Y-108163333D01*
X133310239Y-108163333D01*
X133405477Y-108210952D01*
X133453096Y-108258571D01*
X133500715Y-108353810D01*
X133500715Y-108591905D01*
X133453096Y-108687143D01*
X133405477Y-108734762D01*
X133310239Y-108782381D01*
X133072143Y-108782381D01*
X132976905Y-108734762D01*
X132929286Y-108687143D01*
X132548334Y-99638381D02*
X132215000Y-99162190D01*
X131976905Y-99638381D02*
X131976905Y-98638381D01*
X132357858Y-98638381D01*
X132453096Y-98686000D01*
X132500715Y-98733619D01*
X132548334Y-98828857D01*
X132548334Y-98971714D01*
X132500715Y-99066952D01*
X132453096Y-99114571D01*
X132357858Y-99162190D01*
X131976905Y-99162190D01*
X133405477Y-98638381D02*
X133215000Y-98638381D01*
X133119762Y-98686000D01*
X133072143Y-98733619D01*
X132976905Y-98876476D01*
X132929286Y-99066952D01*
X132929286Y-99447905D01*
X132976905Y-99543143D01*
X133024524Y-99590762D01*
X133119762Y-99638381D01*
X133310239Y-99638381D01*
X133405477Y-99590762D01*
X133453096Y-99543143D01*
X133500715Y-99447905D01*
X133500715Y-99209810D01*
X133453096Y-99114571D01*
X133405477Y-99066952D01*
X133310239Y-99019333D01*
X133119762Y-99019333D01*
X133024524Y-99066952D01*
X132976905Y-99114571D01*
X132929286Y-99209810D01*
M02*
