G04 #@! TF.FileFunction,Copper,L1,Top,Signal*
%FSLAX46Y46*%
G04 Gerber Fmt 4.6, Leading zero omitted, Abs format (unit mm)*
G04 Created by KiCad (PCBNEW 4.0.7) date Thursday, February 01, 2018 'PMt' 05:23:04 PM*
%MOMM*%
%LPD*%
G01*
G04 APERTURE LIST*
%ADD10C,0.100000*%
%ADD11R,0.400000X0.500000*%
%ADD12R,0.700000X1.300000*%
%ADD13R,0.800000X0.900000*%
%ADD14R,1.300000X0.700000*%
%ADD15O,2.500000X0.900000*%
%ADD16O,0.900000X2.500000*%
%ADD17R,6.000000X6.000000*%
%ADD18R,1.250000X1.000000*%
%ADD19R,1.700000X1.700000*%
%ADD20O,1.700000X1.700000*%
%ADD21C,0.600000*%
%ADD22C,0.250000*%
G04 APERTURE END LIST*
D10*
D11*
X134061000Y-95072000D03*
X133261000Y-95072000D03*
X132461000Y-95072000D03*
X131661000Y-95072000D03*
X131661000Y-93472000D03*
X132461000Y-93472000D03*
X133261000Y-93472000D03*
X134061000Y-93472000D03*
D12*
X133665000Y-100584000D03*
X131765000Y-100584000D03*
D13*
X133892000Y-103505000D03*
X131792000Y-103505000D03*
D12*
X133665000Y-109855000D03*
X131765000Y-109855000D03*
D14*
X130556000Y-115062000D03*
X130556000Y-113162000D03*
D15*
X126475000Y-93175000D03*
X126475000Y-94445000D03*
X126475000Y-95715000D03*
X126475000Y-96985000D03*
X126475000Y-98255000D03*
X126475000Y-99525000D03*
X126475000Y-100795000D03*
X126475000Y-102065000D03*
X126475000Y-103335000D03*
X126475000Y-104605000D03*
X126475000Y-105875000D03*
X126475000Y-107145000D03*
X126475000Y-108415000D03*
X126475000Y-109685000D03*
D16*
X123190000Y-111175000D03*
X121920000Y-111175000D03*
X120650000Y-111175000D03*
X119380000Y-111175000D03*
X118110000Y-111175000D03*
X116840000Y-111175000D03*
X115570000Y-111175000D03*
X114300000Y-111175000D03*
X113030000Y-111175000D03*
X111760000Y-111175000D03*
D15*
X108475000Y-109685000D03*
X108475000Y-108415000D03*
X108475000Y-107145000D03*
X108475000Y-105875000D03*
X108475000Y-104605000D03*
X108475000Y-103335000D03*
X108475000Y-102065000D03*
X108475000Y-100795000D03*
X108475000Y-99525000D03*
X108475000Y-98255000D03*
X108475000Y-96985000D03*
X108475000Y-95715000D03*
X108475000Y-94445000D03*
X108475000Y-93175000D03*
D17*
X117175000Y-100875000D03*
D14*
X103505000Y-104963000D03*
X103505000Y-103063000D03*
D18*
X103505000Y-109966000D03*
X103505000Y-107966000D03*
D19*
X106807000Y-116332000D03*
D20*
X109347000Y-116332000D03*
X111887000Y-116332000D03*
X114427000Y-116332000D03*
X116967000Y-116332000D03*
X119507000Y-116332000D03*
X122047000Y-116332000D03*
X124587000Y-116332000D03*
D18*
X103505000Y-95488000D03*
X103505000Y-93488000D03*
X103505000Y-100568000D03*
X103505000Y-98568000D03*
D12*
X133665000Y-106680000D03*
X131765000Y-106680000D03*
X133665000Y-97536000D03*
X131765000Y-97536000D03*
D21*
X133223000Y-94234000D03*
X128016000Y-93218000D03*
X123444000Y-93218000D03*
X118618000Y-96266000D03*
X115570000Y-113284000D03*
X122174000Y-113284000D03*
X111760000Y-112776000D03*
X105156000Y-113284000D03*
X105156000Y-107188000D03*
X104902000Y-94234000D03*
X104902000Y-98044000D03*
X123190000Y-111175000D03*
X126238000Y-113284000D03*
X126475000Y-98255000D03*
X126475000Y-96985000D03*
X133665000Y-100584000D03*
X132842000Y-103378000D03*
X129032000Y-94996000D03*
X124206000Y-94488000D03*
X107696000Y-113030000D03*
X105918000Y-99822000D03*
X105918000Y-102870000D03*
D22*
X133223000Y-94234000D02*
X133647264Y-94234000D01*
X133647264Y-94234000D02*
X134061000Y-94647736D01*
X134061000Y-94647736D02*
X134061000Y-95072000D01*
X133223000Y-94234000D02*
X133223000Y-93510000D01*
X133223000Y-93510000D02*
X133261000Y-93472000D01*
X126475000Y-93175000D02*
X127973000Y-93175000D01*
X127973000Y-93175000D02*
X128016000Y-93218000D01*
X123444000Y-93218000D02*
X126432000Y-93218000D01*
X126432000Y-93218000D02*
X126475000Y-93175000D01*
X117175000Y-100875000D02*
X117175000Y-97625000D01*
X117175000Y-97625000D02*
X118534000Y-96266000D01*
X118534000Y-96266000D02*
X118618000Y-96266000D01*
X127275000Y-93175000D02*
X126475000Y-93175000D01*
X124975000Y-93175000D02*
X126475000Y-93175000D01*
X111760000Y-111175000D02*
X111760000Y-103040000D01*
X111760000Y-103040000D02*
X113925000Y-100875000D01*
X113925000Y-100875000D02*
X117175000Y-100875000D01*
X122174000Y-113284000D02*
X115570000Y-113284000D01*
X124587000Y-116332000D02*
X125857000Y-115062000D01*
X125857000Y-115062000D02*
X130556000Y-115062000D01*
X111760000Y-111175000D02*
X111760000Y-112776000D01*
X106807000Y-116332000D02*
X106807000Y-114935000D01*
X106807000Y-114935000D02*
X105156000Y-113284000D01*
X103505000Y-107966000D02*
X104378000Y-107966000D01*
X104378000Y-107966000D02*
X105156000Y-107188000D01*
X104902000Y-94234000D02*
X105201999Y-93934001D01*
X105201999Y-93934001D02*
X105201999Y-93680001D01*
X105201999Y-93680001D02*
X105394000Y-93488000D01*
X103505000Y-98568000D02*
X104378000Y-98568000D01*
X104378000Y-98568000D02*
X104902000Y-98044000D01*
X105394000Y-93488000D02*
X105707000Y-93175000D01*
X105707000Y-93175000D02*
X108475000Y-93175000D01*
X103505000Y-93488000D02*
X105394000Y-93488000D01*
X111887000Y-116332000D02*
X111887000Y-115129919D01*
X111887000Y-115129919D02*
X106680000Y-109922919D01*
X106680000Y-109922919D02*
X106680000Y-107666000D01*
X103505000Y-109966000D02*
X104380000Y-109966000D01*
X106680000Y-107666000D02*
X106680000Y-100188000D01*
X104380000Y-109966000D02*
X106680000Y-107666000D01*
X106680000Y-100188000D02*
X106680000Y-96710000D01*
X106680000Y-96710000D02*
X107675000Y-95715000D01*
X107675000Y-95715000D02*
X108475000Y-95715000D01*
X103505000Y-103063000D02*
X103805000Y-103063000D01*
X103805000Y-103063000D02*
X106680000Y-100188000D01*
X133261000Y-95072000D02*
X133261000Y-96354998D01*
X133261000Y-96354998D02*
X132989999Y-96625999D01*
X132989999Y-96625999D02*
X132989999Y-101902999D01*
X132989999Y-101902999D02*
X133892000Y-102805000D01*
X133892000Y-102805000D02*
X133892000Y-103505000D01*
X131792000Y-103505000D02*
X131792000Y-106653000D01*
X131792000Y-106653000D02*
X131765000Y-106680000D01*
X130556000Y-113162000D02*
X126360000Y-113162000D01*
X126360000Y-113162000D02*
X126238000Y-113284000D01*
X131068000Y-95715000D02*
X131765000Y-96412000D01*
X131765000Y-96412000D02*
X131765000Y-97536000D01*
X126475000Y-95715000D02*
X131068000Y-95715000D01*
X131068000Y-95715000D02*
X131661000Y-95122000D01*
X131661000Y-95122000D02*
X131661000Y-95072000D01*
X132461000Y-95072000D02*
X132461000Y-100488000D01*
X132461000Y-100488000D02*
X132365000Y-100584000D01*
X132365000Y-100584000D02*
X131765000Y-100584000D01*
X131765000Y-100584000D02*
X131165000Y-100584000D01*
X131165000Y-100584000D02*
X130106000Y-99525000D01*
X130106000Y-99525000D02*
X127975000Y-99525000D01*
X127975000Y-99525000D02*
X126475000Y-99525000D01*
X114427000Y-116332000D02*
X114427000Y-115129919D01*
X114427000Y-115129919D02*
X113030000Y-113732919D01*
X113030000Y-113732919D02*
X113030000Y-112675000D01*
X113030000Y-112675000D02*
X113030000Y-111175000D01*
X131765000Y-109855000D02*
X127321919Y-109855000D01*
X127321919Y-109855000D02*
X126475000Y-110701919D01*
X122047000Y-116332000D02*
X122047000Y-115129919D01*
X122047000Y-115129919D02*
X126475000Y-110701919D01*
X126475000Y-110701919D02*
X126475000Y-110385000D01*
X126475000Y-110385000D02*
X126475000Y-109685000D01*
X133665000Y-106680000D02*
X133665000Y-105780000D01*
X133665000Y-105780000D02*
X132842000Y-104957000D01*
X132842000Y-104957000D02*
X132842000Y-103378000D01*
X133665000Y-109855000D02*
X133665000Y-106680000D01*
X133665000Y-97536000D02*
X133665000Y-100584000D01*
X134061000Y-93472000D02*
X134061000Y-93972000D01*
X134061000Y-93972000D02*
X134686001Y-94597001D01*
X134686001Y-94597001D02*
X134686001Y-95614999D01*
X134686001Y-95614999D02*
X133665000Y-96636000D01*
X133665000Y-96636000D02*
X133665000Y-97536000D01*
X132385999Y-92896999D02*
X133985999Y-92896999D01*
X133985999Y-92896999D02*
X134061000Y-92972000D01*
X134061000Y-92972000D02*
X134061000Y-93472000D01*
X129032000Y-94996000D02*
X131131001Y-92896999D01*
X131131001Y-92896999D02*
X132385999Y-92896999D01*
X132385999Y-92896999D02*
X132461000Y-92972000D01*
X132461000Y-92972000D02*
X132461000Y-93472000D01*
X108475000Y-94445000D02*
X124163000Y-94445000D01*
X124163000Y-94445000D02*
X124206000Y-94488000D01*
X109347000Y-116332000D02*
X109347000Y-114681000D01*
X109347000Y-114681000D02*
X107696000Y-113030000D01*
X105918000Y-99030000D02*
X105918000Y-98806000D01*
X105918000Y-98806000D02*
X105918000Y-96012000D01*
X105918000Y-99822000D02*
X105918000Y-98806000D01*
X103505000Y-104963000D02*
X103805000Y-104963000D01*
X103805000Y-104963000D02*
X105898000Y-102870000D01*
X105898000Y-102870000D02*
X105918000Y-102870000D01*
X105918000Y-96012000D02*
X105394000Y-95488000D01*
X105394000Y-95488000D02*
X105172000Y-95488000D01*
X103505000Y-100568000D02*
X104380000Y-100568000D01*
X104380000Y-100568000D02*
X105918000Y-99030000D01*
X105172000Y-95488000D02*
X106215000Y-94445000D01*
X106215000Y-94445000D02*
X108475000Y-94445000D01*
X103505000Y-95488000D02*
X105172000Y-95488000D01*
M02*
