M48
INCH,TZ
T1C0.016
T2C0.039
%
G90
G05
T1
X4.13Y-3.71
X4.13Y-3.86
X4.14Y-4.22
X4.14Y-4.46
X4.17Y-3.93
X4.17Y-4.05
X4.24Y-4.45
X4.4Y-4.44
X4.55Y-4.46
X4.67Y-3.79
X4.81Y-4.46
X4.85Y-4.377
X4.86Y-3.67
X4.89Y-3.72
X4.97Y-4.46
X4.9793Y-3.8183
X4.9793Y-3.8683
X5.04Y-3.67
X5.08Y-3.74
X5.23Y-4.07
X5.245Y-3.71
X5.2624Y-3.96
T2
X4.205Y-4.58
X4.305Y-4.58
X4.405Y-4.58
X4.505Y-4.58
X4.605Y-4.58
X4.705Y-4.58
X4.805Y-4.58
X4.905Y-4.58
T0
M30
