G04 #@! TF.FileFunction,Paste,Top*
%FSLAX46Y46*%
G04 Gerber Fmt 4.6, Leading zero omitted, Abs format (unit mm)*
G04 Created by KiCad (PCBNEW 4.0.7) date Friday, February 23, 2018 'PMt' 12:04:00 PM*
%MOMM*%
%LPD*%
G01*
G04 APERTURE LIST*
%ADD10C,0.100000*%
%ADD11R,0.400000X0.400000*%
%ADD12R,0.700000X1.300000*%
%ADD13R,0.800000X0.900000*%
%ADD14R,1.300000X0.700000*%
%ADD15O,2.500000X0.900000*%
%ADD16O,0.900000X2.500000*%
%ADD17R,6.000000X6.000000*%
%ADD18R,1.250000X1.000000*%
G04 APERTURE END LIST*
D10*
D11*
X133934000Y-95618000D03*
X133134000Y-95618000D03*
X132334000Y-95618000D03*
X131534000Y-95618000D03*
X131534000Y-93218000D03*
X132334000Y-93218000D03*
X133134000Y-93218000D03*
X133934000Y-93218000D03*
D12*
X133665000Y-100584000D03*
X131765000Y-100584000D03*
D13*
X133892000Y-103505000D03*
X131792000Y-103505000D03*
D12*
X133665000Y-109855000D03*
X131765000Y-109855000D03*
D14*
X130556000Y-115062000D03*
X130556000Y-113162000D03*
D15*
X126475000Y-93175000D03*
X126475000Y-94445000D03*
X126475000Y-95715000D03*
X126475000Y-96985000D03*
X126475000Y-98255000D03*
X126475000Y-99525000D03*
X126475000Y-100795000D03*
X126475000Y-102065000D03*
X126475000Y-103335000D03*
X126475000Y-104605000D03*
X126475000Y-105875000D03*
X126475000Y-107145000D03*
X126475000Y-108415000D03*
X126475000Y-109685000D03*
D16*
X123190000Y-111175000D03*
X121920000Y-111175000D03*
X120650000Y-111175000D03*
X119380000Y-111175000D03*
X118110000Y-111175000D03*
X116840000Y-111175000D03*
X115570000Y-111175000D03*
X114300000Y-111175000D03*
X113030000Y-111175000D03*
X111760000Y-111175000D03*
D15*
X108475000Y-109685000D03*
X108475000Y-108415000D03*
X108475000Y-107145000D03*
X108475000Y-105875000D03*
X108475000Y-104605000D03*
X108475000Y-103335000D03*
X108475000Y-102065000D03*
X108475000Y-100795000D03*
X108475000Y-99525000D03*
X108475000Y-98255000D03*
X108475000Y-96985000D03*
X108475000Y-95715000D03*
X108475000Y-94445000D03*
X108475000Y-93175000D03*
D17*
X117175000Y-100875000D03*
D14*
X103505000Y-104963000D03*
X103505000Y-103063000D03*
D18*
X103505000Y-109966000D03*
X103505000Y-107966000D03*
X103505000Y-95488000D03*
X103505000Y-93488000D03*
X103505000Y-100568000D03*
X103505000Y-98568000D03*
D12*
X133665000Y-106680000D03*
X131765000Y-106680000D03*
X133665000Y-97536000D03*
X131765000Y-97536000D03*
M02*
