M48
INCH,TZ
T1C0.016
T2C0.039
%
G90
G05
T1
X41300Y-37100
X41300Y-38600
X41400Y-42200
X41400Y-44600
X41700Y-39300
X41700Y-40500
X42400Y-44500
X44000Y-44400
X45500Y-44600
X46700Y-37900
X48100Y-44600
X48500Y-43770
X48600Y-36700
X48900Y-37200
X49700Y-44600
X49793Y-38183
X49793Y-38683
X50400Y-36700
X50800Y-37400
X52300Y-40700
X52450Y-37100
X52624Y-39600
T2
X42050Y-45800
X43050Y-45800
X44050Y-45800
X45050Y-45800
X46050Y-45800
X47050Y-45800
X48050Y-45800
X49050Y-45800
T0
M30
